
<svg viewBox="0 0 73 16" fill="none" xmlns="http://www.w3.org/2000/svg">
<path d="M5.52454 15.9991C4.49973 15.9991 3.53735 15.8134 2.74704 15.4707C1.90953 15.0824 1.25779 14.6012 0.759852 13.9495C0.309118 13.2978 0.030455 12.6141 0 11.8237H3.22823C3.30589 12.3202 3.53887 12.6932 3.95763 13.0343C4.37639 13.345 4.90478 13.5307 5.52454 13.5307C6.1443 13.5307 6.59503 13.4226 6.93613 13.1424C7.27723 12.9095 7.46452 12.5684 7.46452 12.1953C7.46452 11.7765 7.23154 11.4659 6.81279 11.2801C6.39403 11.0471 5.74229 10.8294 4.8256 10.5979C3.87845 10.3649 3.11859 10.1472 2.49731 9.86853C1.89278 9.63555 1.39484 9.264 0.930401 8.76606C0.511644 8.26964 0.278664 7.58593 0.278664 6.74842C0.278664 6.06622 0.464438 5.41296 0.883195 4.83889C1.30195 4.26481 1.87603 3.81408 2.6374 3.47298C3.39726 3.13188 4.26675 2.97656 5.30679 2.97656C6.82801 2.97656 8.00662 3.36486 8.92332 4.12472C9.83849 4.88457 10.3349 5.87892 10.4126 7.16717H7.37011C7.33966 6.67076 7.10668 6.252 6.71838 5.98704C6.33007 5.6764 5.84889 5.53631 5.22913 5.53631C4.65505 5.53631 4.20431 5.64442 3.89367 5.84695C3.58303 6.07993 3.44294 6.34336 3.44294 6.71644C3.44294 7.13519 3.67592 7.47629 4.09468 7.70927C4.51343 7.94225 5.19715 8.12803 6.08187 8.36101C6.99704 8.59399 7.75842 8.81174 8.33249 9.09041C8.93702 9.32339 9.43496 9.69494 9.85372 10.2386C10.3045 10.735 10.5359 11.4187 10.5359 12.2562C10.5359 12.9856 10.3501 13.6221 9.93138 14.2434C9.54308 14.8175 8.93855 15.2682 8.17717 15.6093C7.41732 15.8103 6.54783 15.9976 5.52302 15.9976L5.52454 15.9991Z" fill="white"/>
<path d="M11.3828 9.42189C11.3828 8.13364 11.6462 7.01594 12.1427 6.03833C12.6711 5.0455 13.3533 4.28413 14.238 3.75725C15.1075 3.22886 16.1003 2.9502 17.1708 2.9502C18.1179 2.9502 18.925 3.13597 19.6392 3.52427C20.3686 3.91257 20.9274 4.39376 21.3462 4.96784V3.13597H24.5744V15.7687H21.3462V13.9064C20.9274 14.5109 20.3533 15.0089 19.6392 15.3956C18.9098 15.7839 18.0723 15.9697 17.1708 15.9697C16.1003 15.9697 15.1227 15.7063 14.238 15.1322C13.3685 14.6038 12.6711 13.7968 12.1427 12.8039C11.6615 11.8568 11.3828 10.7086 11.3828 9.42036V9.42189ZM21.3629 9.45234C21.3629 8.69249 21.2076 8.00877 20.9122 7.46515C20.6015 6.89108 20.1828 6.47232 19.7016 6.17691C19.1732 5.86626 18.6311 5.72617 18.0251 5.72617C17.419 5.72617 16.8769 5.88149 16.3957 6.14493C15.8993 6.45557 15.4805 6.87433 15.1851 7.43317C14.8745 7.96157 14.7344 8.64376 14.7344 9.42036C14.7344 10.197 14.8897 10.8639 15.1851 11.438C15.4805 12.0121 15.9145 12.4308 16.3957 12.7263C16.9241 13.0369 17.4662 13.177 18.0251 13.177C18.6296 13.177 19.1732 13.0217 19.7016 12.7582C20.23 12.4476 20.6168 12.0288 20.9122 11.47C21.2076 10.9111 21.3629 10.2122 21.3629 9.45234Z" fill="white"/>
<path d="M33.8067 2.94531C35.328 2.94531 36.5538 3.44173 37.4537 4.38888C38.3689 5.33603 38.8653 6.66996 38.8653 8.34651V15.7654H35.6675V8.76527C35.6675 7.77243 35.4041 6.9806 34.9077 6.43698C34.4113 5.89336 33.7275 5.59947 32.8596 5.59947C31.9916 5.59947 31.2607 5.8629 30.7643 6.43698C30.2679 6.96537 30.0044 7.72523 30.0044 8.76527V15.7654H26.8066V3.13261H30.0044V4.69952C30.4232 4.17113 30.9516 3.70669 31.6338 3.41127C32.2855 3.10063 32.9997 2.94531 33.8067 2.94531Z" fill="white"/>
<path d="M44.6764 5.75904V11.8896C44.6764 12.3084 44.7845 12.619 44.9871 12.8368C45.2201 13.0226 45.5611 13.1002 46.0576 13.1002H47.5468V15.8001H45.5292C42.8293 15.8001 41.4939 14.5118 41.4939 11.8729V5.7895H39.9727V3.12012H41.4939V0L44.7221 0V3.12012H47.5316V5.74229H44.6764V5.75752V5.75904Z" fill="white"/>
<path d="M60.6735 9.19015C60.6735 9.64088 60.643 10.0596 60.5958 10.4007H51.3451C51.4227 11.3159 51.7334 12.0301 52.2922 12.5265C52.8663 13.0549 53.55 13.2863 54.3875 13.2863C55.5677 13.2863 56.4052 12.7899 56.9336 11.7651H60.3948C60.0065 12.9757 59.3243 13.9685 58.2995 14.7756C57.2747 15.5354 55.9712 15.9557 54.4972 15.9557C53.2866 15.9557 52.1689 15.6923 51.2217 15.1487C50.2746 14.605 49.5147 13.8132 48.9711 12.8204C48.4275 11.8276 48.1641 10.6946 48.1641 9.39115C48.1641 8.08767 48.4275 6.92277 48.9711 5.92994C49.5147 4.9371 50.2594 4.17573 51.2217 3.64886C52.1841 3.12046 53.2698 2.8418 54.5276 2.8418C55.7854 2.8418 56.8087 3.10523 57.7559 3.60165C58.703 4.13005 59.4629 4.85944 59.9593 5.80507C60.41 6.86034 60.6735 7.93083 60.6735 9.18862V9.19015ZM57.3676 8.27497C57.3676 7.43746 57.0569 6.78572 56.4981 6.28778C55.9392 5.79137 55.2098 5.52793 54.3723 5.52793C53.5348 5.52793 52.9287 5.76091 52.3547 6.25733C51.8263 6.70806 51.4852 7.40548 51.3618 8.24452H57.3676V8.27497Z" fill="white"/>
<path d="M70.2034 6.93262L73.0159 3.04199H69.5044L68.4629 4.49926L70.2034 6.93262Z" fill="white"/>
<path d="M68.4629 14.2332L69.5044 15.6904H73.0159L70.2034 11.7998L68.4629 14.2332Z" fill="white"/>
<path d="M63.9001 3.04199H60.3887L64.9722 9.36598L60.3887 15.69H63.9001L68.4836 9.36598L63.9001 3.04199Z" fill="white"/>
</svg>
